# Blender v2.79 (sub 0) OBJ File: 'tree1.blend'
# www.blender.org
mtllib tree1.mtl
g Cylinder.008
v 0.483767 3.694108 1.247902
v 0.047401 4.027465 0.930867
v 0.650441 4.027465 0.734924
v 1.023150 4.027465 1.247902
v 0.650441 4.027465 1.760880
v 0.047401 4.027465 1.564937
v 0.317093 4.566851 0.734924
v 0.920134 4.566851 0.930867
v 0.920134 4.566851 1.564937
v 0.317093 4.566851 1.760880
v -0.055615 4.566851 1.247902
v 0.483767 4.900207 1.247902
vt 0.000000 0.000000
vt 1.000000 0.000000
vt 1.000000 1.000000
vt 0.000000 0.000000
vt 1.000000 0.000000
vt 1.000000 1.000000
vt 1.000000 0.000000
vt 1.000000 1.000000
vt 1.000000 0.000000
vt 1.000000 1.000000
vt 1.000000 0.000000
vt 1.000000 0.000000
vt 1.000000 1.000000
vt 0.000000 0.000000
vt 1.000000 1.000000
vt 0.000000 0.000000
vt 1.000000 1.000000
vt 0.000000 0.000000
vt 1.000000 1.000000
vt 0.000000 0.000000
vt 1.000000 1.000000
vt 1.000000 0.000000
vt 1.000000 0.000000
vt 1.000000 0.000000
vt 1.000000 0.000000
vt 1.000000 0.000000
vt 0.000000 0.000000
vt 1.000000 1.000000
vt 0.000000 0.000000
vt 0.000000 0.000000
vt 0.000000 0.000000
vt 0.000000 0.000000
vn -0.1876 -0.7947 -0.5774
vn -0.6071 -0.7947 0.0000
vn 0.4911 -0.7947 -0.3568
vn 0.4911 -0.7947 0.3568
vn -0.1876 -0.7947 0.5774
vn -0.9822 -0.1876 0.0000
vn -0.3035 -0.1876 -0.9342
vn 0.7946 -0.1876 -0.5774
vn 0.7946 -0.1876 0.5774
vn -0.3035 -0.1876 0.9342
vn -0.7946 0.1876 -0.5774
vn 0.3035 0.1876 -0.9342
vn 0.9822 0.1876 0.0000
vn 0.3035 0.1876 0.9342
vn -0.7946 0.1876 0.5774
vn -0.4911 0.7947 -0.3568
vn 0.1876 0.7947 -0.5774
vn 0.6071 0.7947 0.0000
vn 0.1876 0.7947 0.5774
vn -0.4911 0.7947 0.3568
usemtl leaf1
s off
f 1/1/1 2/2/1 3/3/1
f 2/4/2 1/5/2 6/6/2
f 1/1/3 3/7/3 4/8/3
f 1/1/4 4/9/4 5/10/4
f 1/1/5 5/11/5 6/6/5
f 2/4/6 6/12/6 11/13/6
f 3/14/7 2/2/7 7/15/7
f 4/16/8 3/7/8 8/17/8
f 5/18/9 4/9/9 9/19/9
f 6/20/10 5/11/10 10/21/10
f 2/4/11 11/22/11 7/15/11
f 3/14/12 7/23/12 8/17/12
f 4/16/13 8/24/13 9/19/13
f 5/18/14 9/25/14 10/21/14
f 6/20/15 10/26/15 11/13/15
f 7/27/16 11/22/16 12/28/16
f 8/29/17 7/23/17 12/28/17
f 9/30/18 8/24/18 12/28/18
f 10/31/19 9/25/19 12/28/19
f 11/32/20 10/26/20 12/28/20
g Cylinder.007
v -0.570068 4.202264 1.012772
v -1.081251 4.592774 0.641381
v -0.374818 4.592774 0.411843
v 0.061793 4.592774 1.012772
v -0.374818 4.592774 1.613701
v -1.081251 4.592774 1.384164
v -0.765319 5.224639 0.411843
v -0.058885 5.224639 0.641381
v -0.058885 5.224639 1.384164
v -0.765319 5.224639 1.613701
v -1.201929 5.224639 1.012772
v -0.570068 5.615150 1.012772
vt 0.000000 0.000000
vt 1.000000 0.000000
vt 1.000000 1.000000
vt 0.000000 0.000000
vt 1.000000 0.000000
vt 1.000000 1.000000
vt 1.000000 0.000000
vt 1.000000 1.000000
vt 1.000000 0.000000
vt 1.000000 1.000000
vt 1.000000 0.000000
vt 1.000000 0.000000
vt 1.000000 1.000000
vt 0.000000 0.000000
vt 1.000000 1.000000
vt 0.000000 0.000000
vt 1.000000 1.000000
vt 0.000000 0.000000
vt 1.000000 1.000000
vt 0.000000 0.000000
vt 1.000000 1.000000
vt 1.000000 0.000000
vt 1.000000 0.000000
vt 1.000000 0.000000
vt 1.000000 0.000000
vt 1.000000 0.000000
vt 0.000000 0.000000
vt 1.000000 1.000000
vt 0.000000 0.000000
vt 0.000000 0.000000
vt 0.000000 0.000000
vt 0.000000 0.000000
vn -0.1876 -0.7947 -0.5774
vn -0.6071 -0.7947 0.0000
vn 0.4911 -0.7947 -0.3568
vn 0.4911 -0.7947 0.3568
vn -0.1876 -0.7947 0.5774
vn -0.9822 -0.1876 0.0000
vn -0.3035 -0.1876 -0.9342
vn 0.7946 -0.1876 -0.5774
vn 0.7946 -0.1876 0.5774
vn -0.3035 -0.1876 0.9342
vn -0.7946 0.1876 -0.5774
vn 0.3035 0.1876 -0.9342
vn 0.9822 0.1876 0.0000
vn 0.3035 0.1876 0.9342
vn -0.7946 0.1876 0.5774
vn -0.4911 0.7947 -0.3568
vn 0.1876 0.7947 -0.5774
vn 0.6071 0.7947 0.0000
vn 0.1876 0.7947 0.5774
vn -0.4911 0.7947 0.3568
usemtl leaf2
s off
f 13/33/21 14/34/21 15/35/21
f 14/36/22 13/37/22 18/38/22
f 13/33/23 15/39/23 16/40/23
f 13/33/24 16/41/24 17/42/24
f 13/33/25 17/43/25 18/38/25
f 14/36/26 18/44/26 23/45/26
f 15/46/27 14/34/27 19/47/27
f 16/48/28 15/39/28 20/49/28
f 17/50/29 16/41/29 21/51/29
f 18/52/30 17/43/30 22/53/30
f 14/36/31 23/54/31 19/47/31
f 15/46/32 19/55/32 20/49/32
f 16/48/33 20/56/33 21/51/33
f 17/50/34 21/57/34 22/53/34
f 18/52/35 22/58/35 23/45/35
f 19/59/36 23/54/36 24/60/36
f 20/61/37 19/55/37 24/60/37
f 21/62/38 20/56/38 24/60/38
f 22/63/39 21/57/39 24/60/39
f 23/64/40 22/58/40 24/60/40
g Cylinder.006
v -1.752960 3.552398 -0.297647
v -2.681989 4.262117 -0.972618
v -1.398110 4.262117 -1.389782
v -0.604610 4.262117 -0.297647
v -1.398110 4.262117 0.794488
v -2.681989 4.262117 0.377324
v -2.107811 5.410475 -1.389782
v -0.823932 5.410475 -0.972618
v -0.823932 5.410475 0.377324
v -2.107811 5.410475 0.794488
v -2.901311 5.410475 -0.297647
v -1.752960 6.120193 -0.297647
vt 0.000000 0.000000
vt 1.000000 0.000000
vt 1.000000 1.000000
vt 0.000000 0.000000
vt 1.000000 0.000000
vt 1.000000 1.000000
vt 1.000000 0.000000
vt 1.000000 1.000000
vt 1.000000 0.000000
vt 1.000000 1.000000
vt 1.000000 0.000000
vt 1.000000 0.000000
vt 1.000000 1.000000
vt 0.000000 0.000000
vt 1.000000 1.000000
vt 0.000000 0.000000
vt 1.000000 1.000000
vt 0.000000 0.000000
vt 1.000000 1.000000
vt 0.000000 0.000000
vt 1.000000 1.000000
vt 1.000000 0.000000
vt 1.000000 0.000000
vt 1.000000 0.000000
vt 1.000000 0.000000
vt 1.000000 0.000000
vt 0.000000 0.000000
vt 1.000000 1.000000
vt 0.000000 0.000000
vt 0.000000 0.000000
vt 0.000000 0.000000
vt 0.000000 0.000000
vn -0.1876 -0.7947 -0.5774
vn -0.6071 -0.7947 0.0000
vn 0.4911 -0.7947 -0.3568
vn 0.4911 -0.7947 0.3568
vn -0.1876 -0.7947 0.5774
vn -0.9822 -0.1876 0.0000
vn -0.3035 -0.1876 -0.9342
vn 0.7946 -0.1876 -0.5774
vn 0.7946 -0.1876 0.5774
vn -0.3035 -0.1876 0.9342
vn -0.7946 0.1876 -0.5774
vn 0.3035 0.1876 -0.9342
vn 0.9822 0.1876 0.0000
vn 0.3035 0.1876 0.9342
vn -0.7946 0.1876 0.5774
vn -0.4911 0.7947 -0.3568
vn 0.1876 0.7947 -0.5774
vn 0.6071 0.7947 0.0000
vn 0.1876 0.7947 0.5774
vn -0.4911 0.7947 0.3568
usemtl leaf1_Untitled.001
s off
f 25/65/41 26/66/41 27/67/41
f 26/68/42 25/69/42 30/70/42
f 25/65/43 27/71/43 28/72/43
f 25/65/44 28/73/44 29/74/44
f 25/65/45 29/75/45 30/70/45
f 26/68/46 30/76/46 35/77/46
f 27/78/47 26/66/47 31/79/47
f 28/80/48 27/71/48 32/81/48
f 29/82/49 28/73/49 33/83/49
f 30/84/50 29/75/50 34/85/50
f 26/68/51 35/86/51 31/79/51
f 27/78/52 31/87/52 32/81/52
f 28/80/53 32/88/53 33/83/53
f 29/82/54 33/89/54 34/85/54
f 30/84/55 34/90/55 35/77/55
f 31/91/56 35/86/56 36/92/56
f 32/93/57 31/87/57 36/92/57
f 33/94/58 32/88/58 36/92/58
f 34/95/59 33/89/59 36/92/59
f 35/96/60 34/90/60 36/92/60
g Cylinder.005
v -0.455328 4.869276 0.583176
v -1.547587 5.703693 -0.210387
v -0.038131 5.703693 -0.700847
v 0.894787 5.703693 0.583176
v -0.038131 5.703693 1.867198
v -1.547587 5.703693 1.376739
v -0.872525 7.053815 -0.700847
v 0.636931 7.053815 -0.210387
v 0.636931 7.053815 1.376739
v -0.872525 7.053815 1.867198
v -1.805443 7.053815 0.583176
v -0.455328 7.888233 0.583176
vt 0.000000 0.000000
vt 1.000000 0.000000
vt 1.000000 1.000000
vt 0.000000 0.000000
vt 1.000000 0.000000
vt 1.000000 1.000000
vt 1.000000 0.000000
vt 1.000000 1.000000
vt 1.000000 0.000000
vt 1.000000 1.000000
vt 1.000000 0.000000
vt 1.000000 0.000000
vt 1.000000 1.000000
vt 0.000000 0.000000
vt 1.000000 1.000000
vt 0.000000 0.000000
vt 1.000000 1.000000
vt 0.000000 0.000000
vt 1.000000 1.000000
vt 0.000000 0.000000
vt 1.000000 1.000000
vt 1.000000 0.000000
vt 1.000000 0.000000
vt 1.000000 0.000000
vt 1.000000 0.000000
vt 1.000000 0.000000
vt 0.000000 0.000000
vt 1.000000 1.000000
vt 0.000000 0.000000
vt 0.000000 0.000000
vt 0.000000 0.000000
vt 0.000000 0.000000
vn -0.1876 -0.7947 -0.5774
vn -0.6071 -0.7947 0.0000
vn 0.4911 -0.7947 -0.3568
vn 0.4911 -0.7947 0.3568
vn -0.1876 -0.7947 0.5774
vn -0.9822 -0.1876 0.0000
vn -0.3035 -0.1876 -0.9342
vn 0.7946 -0.1876 -0.5774
vn 0.7946 -0.1876 0.5774
vn -0.3035 -0.1876 0.9342
vn -0.7946 0.1876 -0.5774
vn 0.3035 0.1876 -0.9342
vn 0.9822 0.1876 0.0000
vn 0.3035 0.1876 0.9342
vn -0.7946 0.1876 0.5774
vn -0.4911 0.7947 -0.3568
vn 0.1876 0.7947 -0.5774
vn 0.6071 0.7947 0.0000
vn 0.1876 0.7947 0.5774
vn -0.4911 0.7947 0.3568
usemtl leaf1_Untitled.001
s off
f 37/97/61 38/98/61 39/99/61
f 38/100/62 37/101/62 42/102/62
f 37/97/63 39/103/63 40/104/63
f 37/97/64 40/105/64 41/106/64
f 37/97/65 41/107/65 42/102/65
f 38/100/66 42/108/66 47/109/66
f 39/110/67 38/98/67 43/111/67
f 40/112/68 39/103/68 44/113/68
f 41/114/69 40/105/69 45/115/69
f 42/116/70 41/107/70 46/117/70
f 38/100/71 47/118/71 43/111/71
f 39/110/72 43/119/72 44/113/72
f 40/112/73 44/120/73 45/115/73
f 41/114/74 45/121/74 46/117/74
f 42/116/75 46/122/75 47/109/75
f 43/123/76 47/118/76 48/124/76
f 44/125/77 43/119/77 48/124/77
f 45/126/78 44/120/78 48/124/78
f 46/127/79 45/121/79 48/124/79
f 47/128/80 46/122/80 48/124/80
g Cylinder.004
v -0.974678 4.153292 -1.090254
v -1.468899 4.530846 -1.449323
v -0.785906 4.530846 -1.671244
v -0.363782 4.530846 -1.090254
v -0.785906 4.530846 -0.509263
v -1.468899 4.530846 -0.731185
v -1.163450 5.141745 -1.671244
v -0.480456 5.141745 -1.449323
v -0.480456 5.141745 -0.731185
v -1.163450 5.141745 -0.509263
v -1.585573 5.141745 -1.090254
v -0.974678 5.519300 -1.090254
vn -0.1876 -0.7947 -0.5774
vn -0.6071 -0.7947 0.0000
vn 0.4911 -0.7947 -0.3568
vn 0.4911 -0.7947 0.3568
vn -0.1876 -0.7947 0.5774
vn -0.9822 -0.1876 0.0000
vn -0.3035 -0.1876 -0.9342
vn 0.7946 -0.1876 -0.5774
vn 0.7946 -0.1876 0.5774
vn -0.3035 -0.1876 0.9342
vn -0.7946 0.1876 -0.5774
vn 0.3035 0.1876 -0.9342
vn 0.9822 0.1876 0.0000
vn 0.3035 0.1876 0.9342
vn -0.7946 0.1876 0.5774
vn -0.4911 0.7947 -0.3568
vn 0.1876 0.7947 -0.5774
vn 0.6071 0.7947 0.0000
vn 0.1876 0.7947 0.5774
vn -0.4911 0.7947 0.3568
usemtl leaf2
s off
f 49//81 50//81 51//81
f 50//82 49//82 54//82
f 49//83 51//83 52//83
f 49//84 52//84 53//84
f 49//85 53//85 54//85
f 50//86 54//86 59//86
f 51//87 50//87 55//87
f 52//88 51//88 56//88
f 53//89 52//89 57//89
f 54//90 53//90 58//90
f 50//91 59//91 55//91
f 51//92 55//92 56//92
f 52//93 56//93 57//93
f 53//94 57//94 58//94
f 54//95 58//95 59//95
f 55//96 59//96 60//96
f 56//97 55//97 60//97
f 57//98 56//98 60//98
f 58//99 57//99 60//99
f 59//100 58//100 60//100
g Cylinder.003
v 0.752068 3.924496 -0.274521
v 0.028468 4.477281 -0.800241
v 1.028453 4.477281 -1.125161
v 1.646493 4.477281 -0.274521
v 1.028453 4.477281 0.576119
v 0.028468 4.477281 0.251199
v 0.475683 5.371711 -1.125161
v 1.475668 5.371711 -0.800241
v 1.475668 5.371711 0.251199
v 0.475683 5.371711 0.576119
v -0.142357 5.371711 -0.274521
v 0.752068 5.924496 -0.274521
vt 0.000000 0.000000
vt 1.000000 0.000000
vt 1.000000 1.000000
vt 0.000000 0.000000
vt 1.000000 0.000000
vt 1.000000 1.000000
vt 1.000000 0.000000
vt 1.000000 1.000000
vt 1.000000 0.000000
vt 1.000000 1.000000
vt 1.000000 0.000000
vt 1.000000 0.000000
vt 1.000000 1.000000
vt 0.000000 0.000000
vt 1.000000 1.000000
vt 0.000000 0.000000
vt 1.000000 1.000000
vt 0.000000 0.000000
vt 1.000000 1.000000
vt 0.000000 0.000000
vt 1.000000 1.000000
vt 1.000000 0.000000
vt 1.000000 0.000000
vt 1.000000 0.000000
vt 1.000000 0.000000
vt 1.000000 0.000000
vt 0.000000 0.000000
vt 1.000000 1.000000
vt 0.000000 0.000000
vt 0.000000 0.000000
vt 0.000000 0.000000
vt 0.000000 0.000000
vn -0.1876 -0.7947 -0.5774
vn -0.6071 -0.7947 0.0000
vn 0.4911 -0.7947 -0.3568
vn 0.4911 -0.7947 0.3568
vn -0.1876 -0.7947 0.5774
vn -0.9822 -0.1876 0.0000
vn -0.3035 -0.1876 -0.9342
vn 0.7946 -0.1876 -0.5774
vn 0.7946 -0.1876 0.5774
vn -0.3035 -0.1876 0.9342
vn -0.7946 0.1876 -0.5774
vn 0.3035 0.1876 -0.9342
vn 0.9822 0.1876 0.0000
vn 0.3035 0.1876 0.9342
vn -0.7946 0.1876 0.5774
vn -0.4911 0.7947 -0.3568
vn 0.1876 0.7947 -0.5774
vn 0.6071 0.7947 0.0000
vn 0.1876 0.7947 0.5774
vn -0.4911 0.7947 0.3568
usemtl leaf1_Untitled.001
s off
f 61/129/101 62/130/101 63/131/101
f 62/132/102 61/133/102 66/134/102
f 61/129/103 63/135/103 64/136/103
f 61/129/104 64/137/104 65/138/104
f 61/129/105 65/139/105 66/134/105
f 62/132/106 66/140/106 71/141/106
f 63/142/107 62/130/107 67/143/107
f 64/144/108 63/135/108 68/145/108
f 65/146/109 64/137/109 69/147/109
f 66/148/110 65/139/110 70/149/110
f 62/132/111 71/150/111 67/143/111
f 63/142/112 67/151/112 68/145/112
f 64/144/113 68/152/113 69/147/113
f 65/146/114 69/153/114 70/149/114
f 66/148/115 70/154/115 71/141/115
f 67/155/116 71/150/116 72/156/116
f 68/157/117 67/151/117 72/156/117
f 69/158/118 68/152/118 72/156/118
f 70/159/119 69/153/119 72/156/119
f 71/160/120 70/154/120 72/156/120
g Cylinder.002
v -0.444408 4.686123 -1.260893
v -1.536667 5.520540 -2.054456
v -0.027211 5.520540 -2.544916
v 0.905707 5.520540 -1.260893
v -0.027211 5.520540 0.023129
v -1.536667 5.520540 -0.467330
v -0.861605 6.870663 -2.544916
v 0.647850 6.870663 -2.054456
v 0.647850 6.870663 -0.467330
v -0.861605 6.870663 0.023129
v -1.794523 6.870663 -1.260893
v -0.444408 7.705080 -1.260893
vt 0.000000 0.000000
vt 1.000000 0.000000
vt 1.000000 1.000000
vt 0.000000 0.000000
vt 1.000000 0.000000
vt 1.000000 1.000000
vt 1.000000 0.000000
vt 1.000000 1.000000
vt 1.000000 0.000000
vt 1.000000 1.000000
vt 1.000000 0.000000
vt 1.000000 0.000000
vt 1.000000 1.000000
vt 0.000000 0.000000
vt 1.000000 1.000000
vt 0.000000 0.000000
vt 1.000000 1.000000
vt 0.000000 0.000000
vt 1.000000 1.000000
vt 0.000000 0.000000
vt 1.000000 1.000000
vt 1.000000 0.000000
vt 1.000000 0.000000
vt 1.000000 0.000000
vt 1.000000 0.000000
vt 1.000000 0.000000
vt 0.000000 0.000000
vt 1.000000 1.000000
vt 0.000000 0.000000
vt 0.000000 0.000000
vt 0.000000 0.000000
vt 0.000000 0.000000
vn -0.1876 -0.7947 -0.5774
vn -0.6071 -0.7947 0.0000
vn 0.4911 -0.7947 -0.3568
vn 0.4911 -0.7947 0.3568
vn -0.1876 -0.7947 0.5774
vn -0.9822 -0.1876 0.0000
vn -0.3035 -0.1876 -0.9342
vn 0.7946 -0.1876 -0.5774
vn 0.7946 -0.1876 0.5774
vn -0.3035 -0.1876 0.9342
vn -0.7946 0.1876 -0.5774
vn 0.3035 0.1876 -0.9342
vn 0.9822 0.1876 0.0000
vn 0.3035 0.1876 0.9342
vn -0.7946 0.1876 0.5774
vn -0.4911 0.7947 -0.3568
vn 0.1876 0.7947 -0.5774
vn 0.6071 0.7947 0.0000
vn 0.1876 0.7947 0.5774
vn -0.4911 0.7947 0.3568
usemtl leaf2_Untitled.002
s off
f 73/161/121 74/162/121 75/163/121
f 74/164/122 73/165/122 78/166/122
f 73/161/123 75/167/123 76/168/123
f 73/161/124 76/169/124 77/170/124
f 73/161/125 77/171/125 78/166/125
f 74/164/126 78/172/126 83/173/126
f 75/174/127 74/162/127 79/175/127
f 76/176/128 75/167/128 80/177/128
f 77/178/129 76/169/129 81/179/129
f 78/180/130 77/171/130 82/181/130
f 74/164/131 83/182/131 79/175/131
f 75/174/132 79/183/132 80/177/132
f 76/176/133 80/184/133 81/179/133
f 77/178/134 81/185/134 82/181/134
f 78/180/135 82/186/135 83/173/135
f 79/187/136 83/182/136 84/188/136
f 80/189/137 79/183/137 84/188/137
f 81/190/138 80/184/138 84/188/138
f 82/191/139 81/185/139 84/188/139
f 83/192/140 82/186/140 84/188/140
g Cylinder.001
v 0.000000 -0.419200 0.419200
v 0.000000 0.419200 0.330232
v -0.363037 -0.419200 0.209600
v -0.285989 0.419200 0.165116
v -0.363037 -0.419200 -0.209600
v -0.285989 0.419200 -0.165116
v 0.000000 -0.419200 -0.419200
v 0.000000 0.419200 -0.330232
v 0.363037 -0.419200 -0.209600
v 0.285989 0.419200 -0.165116
v 0.363037 -0.419200 0.209600
v 0.285989 0.419200 0.165116
v 0.124963 2.032632 0.290764
v -0.126846 2.032632 0.145382
v -0.126846 2.032632 -0.145382
v 0.124963 2.032632 -0.290764
v 0.376772 2.032632 -0.145382
v 0.376772 2.032632 0.145382
v -0.296622 3.683300 0.285308
v -0.586060 3.669219 0.157864
v -0.586060 3.669219 -0.157864
v -0.296622 3.683300 -0.280628
v -0.051564 3.683300 -0.139144
v -0.051564 3.683300 0.143824
v -0.121456 4.047403 0.181047
v -0.761483 4.010587 0.157864
v -0.488055 4.010587 0.315728
v -0.105336 4.024854 -0.315728
v 0.168092 4.024854 -0.157864
v 0.134223 4.002035 0.143824
v -0.761483 4.010587 -0.157864
v -0.435317 3.897247 -0.280628
v -0.161444 4.218201 -0.211466
v -0.828569 4.345386 0.157864
v -0.555141 4.345386 0.315728
v -0.828569 4.345386 -0.157864
v -0.534470 4.242734 -0.315728
v 0.318346 4.317297 0.285308
v 0.323844 4.340116 -0.315728
v 0.597272 4.340116 -0.157864
v 0.563403 4.317297 0.143824
v 0.353713 4.578831 -0.185368
v -1.035803 4.689559 0.072365
v -0.646484 4.586907 -0.196590
v -0.621363 4.634768 0.671791
v -0.451579 4.634768 0.769816
v -0.750043 4.848481 0.618701
v -0.508298 4.784740 0.451695
v 0.004906 3.828701 0.548573
v 0.250225 3.828701 0.471763
v 0.100001 4.026368 0.491971
v 0.351087 4.001738 0.471763
v 0.228390 4.205787 1.018677
v 0.315441 4.192161 1.007063
v 0.264622 4.279171 0.981104
v 0.337824 4.262439 0.951382
vt 0.475372 0.415796
vt 0.482477 0.391529
vt 0.476473 0.401684
vt 0.472255 0.411548
vt 0.482158 0.403904
vt 0.479727 0.413478
vt 0.478490 0.408635
vt 0.476137 0.409189
vt 0.472571 0.429683
vt 0.475794 0.407839
vt 0.477819 0.418048
vt 0.475688 0.407144
vt 0.476774 0.416478
vt 0.474086 0.430434
vt 0.471198 0.439274
vt 0.472773 0.442977
vt 0.475458 0.426771
vt 0.471935 0.426505
vt 0.474501 0.428245
vt 0.474155 0.424847
vt 0.470465 0.437334
vt 0.480503 0.425360
vt 0.471658 0.436131
vt 0.468624 0.442654
vt 0.470106 0.439464
vt 0.466351 0.453123
vt 0.474119 0.441485
vt 0.472050 0.438556
vt 0.471984 0.438511
vt 0.465977 0.441008
vt 0.459569 0.423380
vt 0.470869 0.451506
vt 0.467782 0.456844
vt 0.469580 0.442156
vt 0.467671 0.446485
vt 0.465835 0.459385
vt 0.467241 0.466898
vt 0.464022 0.469162
vt 0.464392 0.464661
vt 0.875839 0.405867
vt 0.703574 0.999906
vt 0.000094 0.395455
vt 0.780928 0.000094
vt 0.058746 0.999906
vt 0.462872 0.470689
vt 0.462574 0.478311
vt 0.461598 0.480145
vt 0.460818 0.483335
vt 0.459747 0.490748
vt 0.461334 0.482249
vt 0.472076 0.438266
vt 0.472122 0.438207
vt 0.472121 0.437688
vt 0.472135 0.438074
vt 0.472131 0.438121
vt 0.472124 0.438153
vn -0.4979 0.0915 0.8624
vn -0.9958 0.0915 0.0000
vn -0.4979 0.0915 -0.8624
vn 0.4979 0.0915 -0.8624
vn -0.9952 0.0982 -0.0000
vn 0.9958 0.0915 0.0000
vn 0.4979 0.0915 0.8624
vn 0.0000 -1.0000 0.0000
vn -0.3954 -0.1179 0.9109
vn 0.9984 -0.0562 0.0000
vn -0.4991 0.0598 0.8645
vn -0.4991 0.0598 -0.8645
vn 0.4999 -0.0175 0.8659
vn 0.4999 -0.0175 -0.8659
vn 0.8639 -0.5036 0.0000
vn 0.4958 0.1295 0.8587
vn 0.4956 0.1319 -0.8585
vn -0.9628 -0.2702 0.0000
vn 0.9679 0.2512 0.0000
vn -0.4963 -0.1215 -0.8596
vn -0.8894 -0.4571 0.0000
vn -0.6959 0.4861 0.5286
vn 0.4691 -0.3462 -0.8125
vn -0.4843 -0.2489 0.8388
vn -0.3692 -0.2394 -0.8980
vn -0.2494 0.4026 -0.8808
vn -0.4073 -0.2093 -0.8890
vn -0.4069 -0.2072 -0.8897
vn -0.4975 -0.0997 0.8617
vn -0.9805 -0.1965 0.0000
vn 0.8622 0.5062 -0.0200
vn -0.7878 0.4870 0.3772
vn 0.4133 -0.5627 -0.7159
vn -0.5441 0.7501 0.3759
vn 0.5920 -0.8059 0.0055
vn -0.2859 0.3892 -0.8756
vn 0.0537 -0.4348 0.8989
vn 0.9598 0.2787 0.0319
vn -0.4184 0.1725 -0.8917
vn 0.9805 0.1965 0.0002
vn -0.8567 -0.5158 0.0000
vn 0.9797 -0.0440 -0.1954
vn -0.7862 -0.3462 0.5119
vn -0.3233 -0.7629 0.5599
vn 0.0439 0.9529 -0.3001
vn -0.8834 0.4652 0.0568
vn 0.1792 -0.9336 0.3104
vn 0.7500 -0.4372 -0.4964
vn 0.0926 0.9939 -0.0604
vn 0.1802 0.3764 0.9088
vn 0.0478 0.8781 -0.4760
vn 0.8407 -0.4900 0.2303
vn 0.1764 -0.8071 0.5635
vn -0.4961 -0.1239 0.8594
vn 0.8412 -0.5380 0.0537
vn -0.3832 -0.1145 -0.9165
vn -0.3723 -0.2994 0.8785
vn -0.0846 -0.0549 -0.9949
vn -0.4974 -0.0997 -0.8618
vn -0.7527 0.5721 0.3256
vn -0.5476 0.7454 0.3801
vn -0.2986 0.4859 -0.8214
vn 0.4133 -0.5627 0.7159
vn -0.5054 0.2485 -0.8264
vn 0.9486 0.3158 -0.0203
vn -0.8919 0.4476 0.0649
vn 0.1014 -0.9407 0.3238
vn 0.1671 0.9846 -0.0524
vn 0.4221 0.4766 0.7712
vn 0.0146 0.8863 -0.4630
vn 0.9701 -0.2011 0.1361
vn -0.0534 -0.8231 0.5654
usemtl trunk
s off
f 86/193/141 87/194/141 85/195/141
f 88/196/142 89/197/142 87/194/142
f 89/197/143 92/198/143 91/199/143
f 92/198/144 93/200/144 91/199/144
f 88/196/145 99/201/145 90/202/145
f 94/203/146 95/204/146 93/200/146
f 96/205/147 85/195/147 95/204/147
f 93/200/148 95/204/148 87/194/148
f 98/206/149 103/207/149 104/208/149
f 94/203/150 102/209/150 96/205/150
f 86/193/151 98/206/151 88/196/151
f 92/198/152 99/201/152 100/210/152
f 96/205/153 97/211/153 86/193/153
f 94/203/154 100/210/154 101/212/154
f 107/213/155 114/214/155 108/215/155
f 97/211/156 108/215/156 103/207/156
f 100/210/157 107/213/157 101/212/157
f 98/206/158 105/216/158 99/201/158
f 102/209/159 107/213/159 108/215/159
f 99/201/160 106/217/160 100/210/160
f 104/208/161 115/218/161 105/216/161
f 109/219/162 133/220/162 135/221/162
f 107/213/163 112/222/163 113/223/163
f 104/208/164 111/224/164 110/225/164
f 105/216/165 116/226/165 106/217/165
f 112/222/166 116/226/166 117/227/166
f 105/216/167 115/218/167 116/226/167
f 115/218/168 121/228/168 116/226/168
f 110/225/169 119/229/169 118/230/169
f 110/225/170 120/231/170 115/218/170
f 116/226/171 111/224/171 103/207/171
f 109/219/172 116/226/172 103/207/172
f 113/223/173 123/232/173 124/233/173
f 117/227/174 122/234/174 126/235/174
f 113/223/175 125/236/175 114/214/175
f 117/227/176 123/232/176 112/222/176
f 114/214/177 122/234/177 109/219/177
f 116/226/178 121/228/178 111/224/178
f 120/231/179 128/237/179 121/228/179
f 121/228/180 119/229/180 111/224/180
f 118/230/181 127/238/181 120/231/181
f 119/229/182 132/239/182 130/240/182
f 118/230/183 131/241/183 127/238/183
f 119/229/184 129/242/184 118/230/184
f 127/238/185 132/239/185 128/237/185
f 135/221/186 137/243/186 139/244/186
f 108/215/187 133/220/187 103/207/187
f 114/214/188 134/245/188 108/215/188
f 114/214/189 135/221/189 136/246/189
f 138/247/190 139/244/190 137/243/190
f 135/221/191 140/248/191 136/246/191
f 136/246/192 138/247/192 134/245/192
f 134/245/193 137/243/193 133/220/193
f 86/193/141 88/196/141 87/194/141
f 88/196/142 90/202/142 89/197/142
f 89/197/143 90/202/143 92/198/143
f 92/198/144 94/203/144 93/200/144
f 88/196/145 98/206/145 99/201/145
f 94/203/146 96/205/146 95/204/146
f 96/205/147 86/193/147 85/195/147
f 95/204/148 85/195/148 87/194/148
f 87/194/148 89/197/148 91/199/148
f 91/199/148 93/200/148 87/194/148
f 98/206/194 97/211/194 103/207/194
f 94/203/150 101/212/150 102/209/150
f 86/193/151 97/211/151 98/206/151
f 92/198/152 90/202/152 99/201/152
f 96/205/153 102/209/153 97/211/153
f 94/203/154 92/198/154 100/210/154
f 107/213/195 113/223/195 114/214/195
f 97/211/156 102/209/156 108/215/156
f 100/210/157 106/217/157 107/213/157
f 98/206/158 104/208/158 105/216/158
f 102/209/159 101/212/159 107/213/159
f 99/201/196 105/216/196 106/217/196
f 104/208/161 110/225/161 115/218/161
f 109/219/162 103/207/162 133/220/162
f 107/213/163 106/217/163 112/222/163
f 104/208/197 103/207/197 111/224/197
f 112/222/198 106/217/198 116/226/198
f 115/218/199 120/231/199 121/228/199
f 110/225/169 111/224/169 119/229/169
f 110/225/170 118/230/170 120/231/170
f 109/219/200 117/227/200 116/226/200
f 113/223/173 112/222/173 123/232/173
f 117/227/201 109/219/201 122/234/201
f 113/223/175 124/233/175 125/236/175
f 117/227/202 126/235/202 123/232/202
f 114/214/203 125/236/203 122/234/203
f 120/231/204 127/238/204 128/237/204
f 121/228/205 128/237/205 119/229/205
f 119/229/182 128/237/182 132/239/182
f 118/230/183 129/242/183 131/241/183
f 119/229/184 130/240/184 129/242/184
f 127/238/185 131/241/185 132/239/185
f 135/221/206 133/220/206 137/243/206
f 108/215/207 134/245/207 133/220/207
f 114/214/188 136/246/188 134/245/188
f 114/214/208 109/219/208 135/221/208
f 138/247/209 140/248/209 139/244/209
f 135/221/210 139/244/210 140/248/210
f 136/246/211 140/248/211 138/247/211
f 134/245/212 138/247/212 137/243/212
